999
"DXF R12 Output" (www.mydxf.blogspot.com)
 0 
SECTION
 2 
HEADER
 9 
$ACADVER
 1 
AC1009
 9 
$EXTMIN
 10 
 0 
 20 
 0 
 9 
$EXTMAX
 10 
 8.5 
 20 
 11 
 0 
ENDSEC
 0 
SECTION
 2 
ENTITIES
0
LINE
8
Layer 1
10
0.006275
20
5.799999
11
2.603922
21
5.799999
0
LINE
8
Layer 1
10
2.603922
20
5.799999
11
5.785100
21
9.000000
0
LINE
8
Layer 1
10
5.785100
20
9.000000
11
9.781963
21
5.009411
0
LINE
8
Layer 1
10
9.781963
20
5.009411
11
5.785100
21
0.999998
0
LINE
8
Layer 1
10
5.785100
20
0.999998
11
2.603922
21
4.181175
0
LINE
8
Layer 1
10
2.603922
20
4.181175
11
0.000000
21
4.174901
0
LINE
8
Layer 1
10
0.000000
20
4.174901
11
0.006275
21
5.799999
0
LINE
8
Layer 1
10
5.791374
20
1.740390
11
9.047846
21
4.990587
0
LINE
8
Layer 1
10
9.047846
20
4.990587
11
5.778825
21
8.272157
0
LINE
8
Layer 1
10
5.778825
20
8.272157
11
3.312942
21
5.799999
0
LINE
8
Layer 1
10
3.312942
20
5.799999
11
5.101178
21
5.799999
0
LINE
8
Layer 1
10
5.101178
20
5.799999
11
5.113727
21
7.092548
0
LINE
8
Layer 1
10
5.113727
20
7.092548
11
7.040002
21
4.996862
0
LINE
8
Layer 1
10
7.040002
20
4.996862
11
5.101178
21
2.863528
0
LINE
8
Layer 1
10
5.101178
20
2.863528
11
5.101178
21
4.187450
0
LINE
8
Layer 1
10
5.101178
20
4.187450
11
3.338040
21
4.181180
0
LINE
8
Layer 1
10
3.338040
20
4.181180
11
5.791374
21
1.740390
0
LINE
8
Layer 1
10
0.401569
20
5.379607
11
0.414118
21
4.582744
0
LINE
8
Layer 1
10
0.414118
20
4.582744
11
5.509021
21
4.595293
0
LINE
8
Layer 1
10
5.509021
20
4.595293
11
5.515296
21
3.930195
0
LINE
8
Layer 1
10
5.515296
20
3.930195
11
6.519217
21
5.003136
0
LINE
8
Layer 1
10
6.519217
20
5.003136
11
5.496472
21
6.057254
0
LINE
8
Layer 1
10
5.496472
20
6.057254
11
5.483923
21
5.373332
0
LINE
8
Layer 1
10
5.483923
20
5.373332
11
0.401569
21
5.379607
0
LINE
8
Layer 1
10
20.519789
20
0.999992
11
19.515695
21
0.999992
0
LINE
8
Layer 1
10
19.515695
20
0.999992
11
19.515695
21
7.804910
0
LINE
8
Layer 1
10
19.515695
20
7.804910
11
17.234656
21
0.999992
0
LINE
8
Layer 1
10
17.234656
20
0.999992
11
16.285133
21
0.999992
0
LINE
8
Layer 1
10
16.285133
20
0.999992
11
14.004094
21
7.804910
0
LINE
8
Layer 1
10
14.004094
20
7.804910
11
14.004094
21
0.999992
0
LINE
8
Layer 1
10
14.004094
20
0.999992
11
13.000000
21
0.999992
0
LINE
8
Layer 1
10
13.000000
20
0.999992
11
13.000000
21
9.000000
0
LINE
8
Layer 1
10
13.000000
20
9.000000
11
14.587996
21
9.000000
0
LINE
8
Layer 1
10
14.587996
20
9.000000
11
16.754438
21
2.331508
0
LINE
8
Layer 1
10
16.754438
20
2.331508
11
18.931793
21
9.000000
0
LINE
8
Layer 1
10
18.931793
20
9.000000
11
20.519789
21
9.000000
0
LINE
8
Layer 1
10
20.519789
20
9.000000
11
20.519789
21
0.999992
0
LINE
8
Layer 1
10
30.000995
20
4.012279
11
26.999999
21
4.012279
0
LINE
8
Layer 1
10
26.999999
20
4.012279
11
26.999999
21
5.000000
0
LINE
8
Layer 1
10
26.999999
20
5.000000
11
30.000995
21
5.000000
0
LINE
8
Layer 1
10
30.000995
20
5.000000
11
30.000995
21
4.012279
0
LINE
8
Layer 1
10
41.293320
20
4.094949
11
39.105051
21
4.094949
0
LINE
8
Layer 1
10
39.105051
20
4.094949
11
39.105051
21
1.906680
0
LINE
8
Layer 1
10
39.105051
20
1.906680
11
38.188270
21
1.906680
0
LINE
8
Layer 1
10
38.188270
20
1.906680
11
38.188270
21
4.094949
0
LINE
8
Layer 1
10
38.188270
20
4.094949
11
36.000000
21
4.094949
0
LINE
8
Layer 1
10
36.000000
20
4.094949
11
36.000000
21
5.011730
0
LINE
8
Layer 1
10
36.000000
20
5.011730
11
38.188270
21
5.011730
0
LINE
8
Layer 1
10
38.188270
20
5.011730
11
38.188270
21
7.200000
0
LINE
8
Layer 1
10
38.188270
20
7.200000
11
39.105051
21
7.200000
0
LINE
8
Layer 1
10
39.105051
20
7.200000
11
39.105051
21
5.011731
0
LINE
8
Layer 1
10
39.105051
20
5.011731
11
41.293320
21
5.011731
0
LINE
8
Layer 1
10
41.293320
20
5.011731
11
41.293320
21
4.094949
0
LINE
8
Layer 1
10
56.822574
20
1.000015
11
49.000007
21
4.322589
0
LINE
8
Layer 1
10
49.000007
20
4.322589
11
49.000007
21
5.677426
0
LINE
8
Layer 1
10
49.000007
20
5.677426
11
56.822574
21
9.000000
0
LINE
8
Layer 1
10
56.822574
20
9.000000
11
56.822574
21
7.556455
0
LINE
8
Layer 1
10
56.822574
20
7.556455
11
50.612908
21
5.000007
0
LINE
8
Layer 1
10
50.612908
20
5.000007
11
56.822574
21
2.443560
0
LINE
8
Layer 1
10
56.822574
20
2.443560
11
56.822574
21
1.000015
0
LINE
8
Layer 1
10
79.836985
20
7.719533
11
79.590290
21
7.612338
0
LINE
8
Layer 1
10
79.590290
20
7.612338
11
79.484563
21
7.355364
0
LINE
8
Layer 1
10
79.484563
20
7.355364
11
79.602037
21
7.061679
0
LINE
8
Layer 1
10
79.602037
20
7.061679
11
80.107176
21
6.161534
0
LINE
8
Layer 1
10
80.107176
20
6.161534
11
80.295134
21
5.111611
0
LINE
8
Layer 1
10
80.295134
20
5.111611
11
80.044400
21
3.806731
0
LINE
8
Layer 1
10
80.044400
20
3.806731
11
79.355342
21
2.734230
0
LINE
8
Layer 1
10
79.355342
20
2.734230
11
78.322672
21
2.007544
0
LINE
8
Layer 1
10
78.322672
20
2.007544
11
77.041104
21
1.740107
0
LINE
8
Layer 1
10
77.041104
20
1.740107
11
75.754029
21
1.999467
0
LINE
8
Layer 1
10
75.754029
20
1.999467
11
74.709245
21
2.704862
0
LINE
8
Layer 1
10
74.709245
20
2.704862
11
74.008072
21
3.747260
0
LINE
8
Layer 1
10
74.008072
20
3.747260
11
73.751832
21
5.017631
0
LINE
8
Layer 1
10
73.751832
20
5.017631
11
73.942727
21
6.118950
0
LINE
8
Layer 1
10
73.942727
20
6.118950
11
74.468423
21
7.061679
0
LINE
8
Layer 1
10
74.468423
20
7.061679
11
74.585897
21
7.355364
0
LINE
8
Layer 1
10
74.585897
20
7.355364
11
74.480171
21
7.612338
0
LINE
8
Layer 1
10
74.480171
20
7.612338
11
74.233475
21
7.719533
0
LINE
8
Layer 1
10
74.233475
20
7.719533
11
73.916295
21
7.566817
0
LINE
8
Layer 1
10
73.916295
20
7.566817
11
73.242288
21
6.402356
0
LINE
8
Layer 1
10
73.242288
20
6.402356
11
72.999998
21
5.017631
0
LINE
8
Layer 1
10
72.999998
20
5.017631
11
73.080647
21
4.207543
0
LINE
8
Layer 1
10
73.080647
20
4.207543
11
73.312589
21
3.453208
0
LINE
8
Layer 1
10
73.312589
20
3.453208
11
73.680820
21
2.770735
0
LINE
8
Layer 1
10
73.680820
20
2.770735
11
74.170333
21
2.176229
0
LINE
8
Layer 1
10
74.170333
20
2.176229
11
74.766124
21
1.685798
0
LINE
8
Layer 1
10
74.766124
20
1.685798
11
75.453186
21
1.315548
0
LINE
8
Layer 1
10
75.453186
20
1.315548
11
76.216515
21
1.081587
0
LINE
8
Layer 1
10
76.216515
20
1.081587
11
77.041104
21
1.000020
0
LINE
8
Layer 1
10
77.041104
20
1.000020
11
77.855070
21
1.081587
0
LINE
8
Layer 1
10
77.855070
20
1.081587
11
78.612319
21
1.315548
0
LINE
8
Layer 1
10
78.612319
20
1.315548
11
79.296880
21
1.685798
0
LINE
8
Layer 1
10
79.296880
20
1.685798
11
79.892785
21
2.176229
0
LINE
8
Layer 1
10
79.892785
20
2.176229
11
80.384065
21
2.770735
0
LINE
8
Layer 1
10
80.384065
20
2.770735
11
80.754751
21
3.453208
0
LINE
8
Layer 1
10
80.754751
20
3.453208
11
80.988873
21
4.207543
0
LINE
8
Layer 1
10
80.988873
20
4.207543
11
81.070462
21
5.017631
0
LINE
8
Layer 1
10
81.070462
20
5.017631
11
80.828172
21
6.402356
0
LINE
8
Layer 1
10
80.828172
20
6.402356
11
80.154165
21
7.566817
0
LINE
8
Layer 1
10
80.154165
20
7.566817
11
79.836985
21
7.719533
0
LINE
8
Layer 1
10
79.836985
20
7.719533
11
79.836985
21
7.719533
0
LINE
8
Layer 1
10
77.041104
20
9.000000
11
76.763572
21
8.878121
0
LINE
8
Layer 1
10
76.763572
20
8.878121
11
76.653440
21
8.588841
0
LINE
8
Layer 1
10
76.653440
20
8.588841
11
76.653440
21
5.346559
0
LINE
8
Layer 1
10
76.653440
20
5.346559
11
76.763572
21
5.047000
0
LINE
8
Layer 1
10
76.763572
20
5.047000
11
77.041104
21
4.923652
0
LINE
8
Layer 1
10
77.041104
20
4.923652
11
77.298078
21
5.047000
0
LINE
8
Layer 1
10
77.298078
20
5.047000
11
77.405273
21
5.346559
0
LINE
8
Layer 1
10
77.405273
20
5.346559
11
77.405273
21
8.588841
0
LINE
8
Layer 1
10
77.405273
20
8.588841
11
77.298078
21
8.878121
0
LINE
8
Layer 1
10
77.298078
20
8.878121
11
77.041104
21
9.000000
0
LINE
8
Layer 1
10
77.041104
20
9.000000
11
77.041104
21
9.000000
0
LINE
8
Layer 1
10
68.822574
20
4.322589
11
61.000007
21
1.000015
0
LINE
8
Layer 1
10
61.000007
20
1.000015
11
61.000007
21
2.443560
0
LINE
8
Layer 1
10
61.000007
20
2.443560
11
67.209674
21
5.000007
0
LINE
8
Layer 1
10
67.209674
20
5.000007
11
61.000007
21
7.556455
0
LINE
8
Layer 1
10
61.000007
20
7.556455
11
61.000007
21
9.000000
0
LINE
8
Layer 1
10
61.000007
20
9.000000
11
68.822574
21
5.677426
0
LINE
8
Layer 1
10
68.822574
20
5.677426
11
68.822574
21
4.322589
 0 
ENDSEC
 0 
EOF